<svg viewBox="0 0 2400 1600" xmlns="http://www.w3.org/2000/svg">
  <defs>
    <linearGradient id="a" x1="0%" y1="0%" y2="0%">
      <stop offset="0%" stop-color="#148BB1"/>
      <stop offset="100%" stop-color="#DBE2E8"/>
    </linearGradient>
  </defs>
  <g transform="translate(-1)" class="path path-01" stroke="url(#a)" stroke-width="3" fill-rule="evenodd" stroke-linejoin="round" fill="none" stroke-dasharray="8,960,24,960,16,400" stroke-dashoffset="6400">
    <path d="M229 92h32l32-32V0"/>
    <path d="M229 84h28l28-28V0"/>
    <path d="M229 76h24l24-24V0"/>
    <path d="M229 68h20l20-20V0"/>
    <path d="M229 60h16l16-16V0M193 56V0M185 56V0M201 56V0M209 56V0M217 56V0M225 56V0M177 92h4M229 100h20l8.0156 8.0156v15.9917M177 100h4M177 84h4M177 76h4M177 68h4M177 60h4M273 284h-8l-4 4h-52l-16-16V104"/>
    <path d="M281 439v-67l-96-96V104"/>
    <path d="M301 272h-36l-8 8h-44l-12-12V104"/>
    <path d="M245 268h-32l-4-4V104"/>
    <path d="M221.0311 252v-7.9689L217 240V104M225 108v-4 80l8 8h8"/>
    <g>
      <path d="M1 239h24l32 32v124l12 12v4"/>
      <path d="M1 247h20l29 29v124l3 3v8"/>
      <path d="M1 271h7l16 16v121l-11.0454 11.0454L13 487v9L0 509"/>
      <path d="M0 521l21-21v-76l12-12V284l-21-21H1"/>
      <path d="M0 556v-24l29-29v-75l12-12V279l-24-24H1"/>
    </g>
    <g>
      <path d="M301 476h60l16.0312-16.0312H472M1 156h76l44 44v116l36 36h20l32 32v16l-12 12v40l32 32h24M301 484h91l4-4h69l4-4h8l44 44h36"/>
      <path d="M301 468h56l16-16h4l4-4M1 132h88l56 56v108l80 80v32l-12 12v24l24 24h16"/>
      <path d="M301 460h52l32-32M225 432v12l16 16h12"/>
      <path d="M301 452h47l29-29v-3l9-9M137 127v9l16 16v140l80 80v36l4 4v32l8 8h8"/>
      <path d="M301 444h16l4-4h16M349 712h-20l-24-24V524l-8-8v-28M245 396v44l4 4h4"/>
      <path d="M265 440v-60l-96-96V144l-8-8v-9M261 604l-.0156-47.9844L248.9688 544v-15.9688L265 512v-24"/>
      <path d="M257 440v-56l-96-96V148l-12-12v-21M240 521l17-17v-16"/>
      <path d="M273 440v-64l-96-96V140l-4-4v-20M260 532v-3l13-13v-28M273 548v-20l8-8v-32M289 440v-88l16-16v-9M349 720h-25l-27-27V529l-8-8v-33"/>
      <path d="M297 440v-84l20-20v-20M1 148l79.9896-.0104L129 196v116l16 16h20l52 52v24l-12 12.2857v32.2857L232.4286 476H253"/>
    </g>
    <g>
      <path d="M1 643h88l13-13v-7"/>
      <path d="M1 651h93l24.0208-24.0208v-3.9793"/>
      <path d="M1 659h96l37-37"/>
      <path d="M1 675h4l8-8.0623L101 667l35-35h8l9-9"/>
      <path d="M1 683h9l8-8h87l36-36h24"/>
    </g>
    <g>
      <path d="M1 908h60l40-40v-77l19.0263-19.0263h9.0322"/>
      <path d="M1 900h56l36-36v-80l8.5131-8.5131"/>
      <path d="M1 892h53l32-32v-47l-9-9v-14"/>
      <path d="M1 884h47l28-28v-42l-10-10v-28"/>
      <path d="M1 876h44l24-24v-32l-16-16v-14M1 916h67l9-9"/>
    </g>
    <g>
      <path d="M405 720h15M240 567l5 5v20l-12 12v32l48 48v16l36 36h32M405 736h15"/>
      <path d="M267.9762 655v3.9762L289 680v16l32 32h28"/>
      <path d="M217 567.9934V644l48 48v16l44 44h40M405 752h15"/>
      <path d="M230 587l-5 5v48l48 48v16l40 40h36M356 704v-16l-32-32v-32l-8-8v-52M258 964v-18l11-11v-39l88-88v-48"/>
      <path d="M270 952v-5l8-8v-40l87-87v-52"/>
      <path d="M282 964v-17l4-4v-40l87-88v-55"/>
      <path d="M294 952v-45l87-87v-60"/>
      <path d="M342 947v-4l4-4v-72l43-43v-64"/>
      <path d="M353 967v-95l44-44v-68M405 712h5M405 728h5M405 744h5M372 704v-24l-31-31v-84"/>
      <path d="M364 704v-21l-31-31v-44l-4-4v-27.0185"/>
      <path d="M380 704v-29l-31-31v-40l8-8v-32"/>
      <path d="M388 704v-32l-31-31v-33.0151l7.9924-7.9925V568l20.029-20.029H417l27.9855-27.9855H461l56.0072 56.0073H533l8.0591-8.0592h11.941"/>
      <path d="M396 704v-36l-31-31v-26l8-8v-23l13-13"/>
    </g>
    <g>
      <path d="M209 856v-77l29-29v-38l-4-4v-13"/>
      <path d="M193 856v-85l24-24v-3M225 856v-69l29.0172-29.0172V747l4.1127-4.1127V736"/>
      <path d="M217 856v-73l29-29v-47"/>
      <path d="M201 856v-80l29-29v-31l-13-13v-35l-16-16v-68l-35-35v-10"/>
      <path d="M185 856v-88l17-17v-75l-20-20v-29M229 900h20l8.0156 8.0156v15.9917M225 908v-4 80l8 8h8"/>
      <path d="M273 1084h-8l-4 4h-52l-16-16V904"/>
      <path d="M245 1068h-32l-4-4V904M229 892h32l32-32v-72l17-17"/>
      <path d="M229 884h28l28-28v-76l10-10"/>
      <path d="M229 876h24l24-24v-81"/>
      <path d="M229 868h20l20-20v-57l-4-4v-4"/>
      <path d="M229 860h16l16-16v-49l-4-4M281 1239v-67l-96-96V904"/>
      <path d="M301 1072h-36l-8 8h-44l-12-12V904"/>
      <path d="M221.0311 1052v-7.9689L217 1040V904"/>
    </g>
    <g>
      <path d="M581 196h16l12 12v16l24 24h92l5-5h7"/>
      <path d="M581 188h20l16 16v16l20 20h84.006l7.997-7.997H789l13.0015-13.0015L803 218v-47M581 180h12M581 172h12M689.0558 370.9965h-9.0523L677 367.9931h-43.993L605.0138 340v-72.9861L569 231v-15M309 167.9667h20.9667L345 183h100l29 29h59"/>
      <path d="M581 212h8l4 4v16l28 28v36l56 56h28l4-4h8"/>
      <path d="M581 204h12l8 8v15l28 28v37.0135l51.9932 51.9933h20.0314l9.0448-9.0448H729M557 360v-4l17-17v-19l-17-17v-36l-20-20v-31M589 352v-76l-36-36v-24M532 196h-51l-28-28V0M545 168v-20l36-36V0"/>
      <path d="M533 204h-55l-33-33V0M537 167v-23l36-36V0M573.004 360v-8.996l7.996-7.996V280l-36-36v-28"/>
      <path d="M604.9966 360v-7.9966L597 344.0068V271l-36-36v-19"/>
      <path d="M729.0054 359H637l-24-24v-71l-36-36v-12M533.0102 188.0224h-46.9924L461 163.0047V0M553 168v-16l36-36V0"/>
      <path d="M533 180h-43l-21-21V0M561 168v-12l36-36V0"/>
      <path d="M533 172h-39l-17-17V0M569 168v-8l36-36V0"/>
      <path d="M577 168v-4l36-36V0"/>
    </g>
  </g>
  <g transform="translate(599)" class="path path-02" stroke="url(#a)" stroke-width="3" fill-rule="evenodd" stroke-linejoin="round" fill="none" stroke-dasharray="8,960,24,960,16,400" stroke-dashoffset="6400">
    <path d="M429 92h32l32-32V0"/>
    <path d="M429 84h28l28-28V0"/>
    <path d="M429 76h24l24-24V0"/>
    <path d="M429 68h20l20-20V0"/>
    <path d="M429 60h16l16-16V0M393 56V0M385 56V0M401 56V0M409 56V0M417 56V0M425 56V0M377 92h4M429 100h20l8.0156 8.0156v15.9917M377 100h4M377 84h4M377 76h4M377 68h4M377 60h4M473 284h-8l-4 4h-52l-16-16V104"/>
    <path d="M481 439v-67l-96-96V104"/>
    <path d="M501 272h-36l-8 8h-44l-12-12V104"/>
    <path d="M445 268h-32l-4-4V104"/>
    <path d="M421.0311 252v-7.9689L417 240V104M425 108v-4 80l8 8h8"/>
    <g>
      <path d="M29 828v28l20 20h16M121 876h32l16 16h85l32-32v-47l-9-9v-14M45 828v20l12 12h8"/>
      <path d="M121 860h40.0125l15.9938 15.9938H201L243 876h2l24-24v-32l-16-16v-14"/>
      <path d="M121 892h24l16 16h100l40-40v-77l19.0263-19.0263h9.0322"/>
      <path d="M121 884h28l16 16h92l36-36v-80l8.5131-8.5131"/>
      <path d="M121 868h36l16 16h75l28-28v-42l-10-10v-28M109 856v-24l8-8v-72l21.0238-21.0238H182l14.9881-14.9881h4.012L213 716l4-4h92l9-9v-15"/>
      <path d="M117 856v-20l8-8v-72l17-17h43.0116l14.9942-14.9942H201L217 724l4-4h93l12-12v-9l3-3v-21"/>
      <path d="M93 856v-32l8-8v-72l29-29h43l24-24h19M121 900h20l16 16h111l9-9"/>
      <path d="M121 908h16l16 16h140l28 28h8l5 5M37 828v24l16 16h12M35 921l13-13h17M69 856v-85M24 986.9881h8.988L36.9763 983H58l35-35v-36M85 856v-36l8-8v-80l9-9M101 856v-28l8-8v-71l25-25h43l20-20h3M29 891.6667h36M29 876h8l8 8h20M29 908h8l8-8h20M12 952h9l8 8h16l24-24v-24M120.9961 992v-11.996L117 976.0077V912"/>
      <path d="M11.9878 975H53l32-32v-31M77 856v-40l4-4v-11"/>
      <path d="M0 963h20l4 4h25l28-28v-27M36 999.0032h5.0032L49 991.0064h12.0064L101 951.0128V912M108.6667 980.0294V912"/>
    </g>
    <g>
      <path d="M175 1356v-34l27.5045-27.5045L205 1292v-71l-3-3-25-25v-61l4-4v-5"/>
      <path d="M191 1356v-26l13.0384-13.0384L221 1300v-76l12-12v-128l-21-21h-26l-9 9h-20l-4 4h-7"/>
      <path d="M183 1356v-30l20.025-20.025L213 1296v-9l-.0454-67.9546L224 1208v-121l-16-16h-19l-8.0623 8.0623h-11.9379l-7.9688 7.9688h-3.0312"/>
      <path d="M116.9616 1067H130l3-3h39l9-9h36l24 24v137l-12 12v75l-29 29v24M225 1396h20l20 20v8"/>
      <path d="M225 1404h17l7.071 7.071v12.9292M225 1372h12l16-16v-20"/>
      <path d="M225 1364h8l9-9v-8M225 1388h20l32-32v-20"/>
      <path d="M225 1380h16l25-25v-8M217 1356v-16l24.0208-24.0208H289l16.9896-16.9896V1271"/>
      <path d="M209 1356v-20l28.0179-28.0179h47.9929l8.9857-8.9856v-79.0028l-28.9951-28.995V1068l-40.0132-40.0132H217"/>
    </g>
  </g>
  <g transform="translate(1024 164)" class="path path-03" stroke="url(#a)" stroke-width="3" fill-rule="evenodd" stroke-linejoin="round" fill="none" stroke-dasharray="8,960,24,960,16,400" stroke-dashoffset="6400">
    <path d="M56 52h147l33 33v91l72 72h72l20-20h40l32 32h52l4-4v-8"/>
    <path d="M56 44h151l36 36v91.0055l48.9973 48.9972H444l12.0401 12.0402h7.0254"/>
    <path d="M56 36h155l41 41v91l44 44h151l8 8h35"/>
    <path d="M56 28h159l45 45v91s15 16 16 16h8l5 5M8 60h8M12 52h4M8 44h8M12 36h4M36 72v-8M52 24v-4l4-4h36M64 76h-4l-8-8v-4M28 24v-4M36 24v-4M20 24v-4l-4-4V0M44 24v-4"/>
    <g>
      <path d="M372 291v-12M388 291v-12M380 291v-12M255 252h9l28 28h40l20 20h12M412 300h112l16 16h8M255 275h9l20 20h39l21 21h20M412 316h104l12.0416 12.0416V335"/>
      <path d="M237 262.9792h26.9792L288 287h39l21 21h16M412 308h108.0046l16.9977 16.9977M309 344h26l12-12h17M412 332h12l16 16h8l4-4h12M321 332h15l8-8h20M412 324h84l4 4h7M376.0208 407v-3.9792L384.0416 395v-14.9584L372 368v-28M399 399v-28l-11-11v-20M392 407v-31l-12-12v-24M396 291v-12l16-16h6M408 407v-39l-12-12v-16M404 291v-7l9-9h27l16 16h71l9 9h12M420 396v-8l-4-4v-21l-12-12v-11"/>
    </g>
    <g>
      <path d="M372 1091v-12M388 1091v-12M380 1091v-12M255 1052h9l28 28h40l20 20h12M412 1100h112l16 16h8M255 1075h9l20 20h39l21 21h20M412 1116h104l12.0416 12.0416V1135"/>
      <path d="M237 1062.9792h26.9792L288 1087h39l21 21h16M412 1108h108.0046l16.9977 16.9977M309 1144h26l12-12h17M412 1132h12l16 16h8l4-4h12M321 1132h15l8-8h20M412 1124h84l4 4h7M376.0208 1207v-3.9792l8.0208-8.0208v-14.9584L372 1168v-28M399 1199v-28l-11-11v-20M392 1207v-31l-12-12v-24M396 1091v-12l16-16h6M408 1207v-39l-12-12v-16M404 1091v-7l9-9h27l16 16h71l9 9h12M420 1196v-8l-4-4v-21l-12-12v-11"/>
    </g>
    <g>
      <path d="M197 720h8l7-8v-40l-16-16v-24l17-17v-33l16-16v-8M156 712v-10M144 803v-15l12-12v-16M157 803v-16l7-7v-20M172 712v-26M193 803v-8l-21-21v-14"/>
      <path d="M188 712v-9l9-9v-8M209 803v-16l-21-20v-7M180 711v-88l16-16"/>
    </g>
    <g>
      <path d="M550 392v-34l27.5045-27.5045L580 328v-71l-3-3-25-25v-61l4-4v-5"/>
      <path d="M566 392v-26l13.0384-13.0384L596 336v-76l12-12V120l-21-21h-26l-9 9h-20l-4 4h-7"/>
      <path d="M558 392v-30l20.025-20.025L588 332v-9l-.0454-67.9546L599 244V123l-16-16h-19l-8.0623 8.0623h-11.9379l-7.9688 7.9688h-3.0312"/>
      <path d="M491.9616 103H505l3-3h39l9-9h36l24 24v137l-12 12v75l-29 29v24M600 432h20l20 20v8"/>
      <path d="M600 440h17l7.071 7.071v12.9292M600 408h12l16-16v-20"/>
      <path d="M600 400h8l9-9v-8M600 424h20l32-32v-20"/>
      <path d="M600 416h16l25-25v-8M592 392v-16l24.0208-24.0208H664l16.9896-16.9896V307"/>
      <path d="M584 392v-20l28.0179-28.0179h47.9929l8.9857-8.9856v-79.0028l-28.9951-28.995V104l-40.0132-40.0132H592"/>
    </g>
    <g>
      <path d="M56 852h147l33 33v91l72 72h72l20-20h40l32 32h52l4-4v-8"/>
      <path d="M56 844h151l36 36v91.0055l48.9973 48.9972H444l12.0401 12.0402h7.0254"/>
      <path d="M56 836h155l41 41v91l44 44h151l8 8h35"/>
      <path d="M56 828h159l45 45v91s15 16 16 16h8l5 5M8 860h8M8 844h8M52 824v-4l4-4h36M28 824v-4M20 824v-4l-4-4v-16M36 872v-8M0 744v-4 80l8 8h8M64 876h-4l-8-8v-4"/>
    </g>
  </g>
  <g transform="translate(1532 115)" class="path path-04" stroke="url(#a)" stroke-width="3" fill-rule="evenodd" stroke-linejoin="round" fill="none" stroke-dasharray="8,960,24,960,16,400" stroke-dashoffset="6400">
    <path d="M368 361h60l16.0312-16.0312H539M0 52h12l11-11h121l44 44v116l36 36h20l32 32v16l-12 12v40l32 32h24M368 369h91l4-4h69l4-4h8l44 44h36"/>
    <path d="M368 353h56l16-16h4l4-4M0 4h4l13 13h139l56 56v108l80 80v32l-12 12v24l24 24h16"/>
    <path d="M368 345h52l32-32M292 317v12l16 16h12"/>
    <path d="M368 337h47l29-29v-3l9-9M204 12v9l16 16v140l80 80v36l4 4v32l8 8h8"/>
    <path d="M368 329h16l4-4h16M416 597h-20l-24-24V409l-8-8v-28M312 281v44l4 4h4"/>
    <path d="M332 325v-60l-96-96V29l-8-8v-9M328 489l-.0156-47.9844L315.9688 429v-15.9688L332 397v-24"/>
    <path d="M324 325v-56l-96-96V33l-12-12V0M307 406l17-17v-16"/>
    <path d="M340 325v-64l-96-96V25l-4-4V1M327 417v-3l13-13v-28M340 433v-20l8-8v-32M356 325v-88l16-16v-9M416 605h-25l-27-27V414l-8-8v-33"/>
    <path d="M364 325v-84l20-20v-20M0 36h17l3-3h48l79.9896-.0104L196 81v116l16 16h20l52 52v24l-12 12.2857v32.2857L299.4286 361H320"/>
    <g>
      <path d="M276 741v-77l29-29v-38l-4-4v-13"/>
      <path d="M260 741v-85l24-24v-3M292 741v-69l29.0172-29.0172V632l4.1127-4.1127V621"/>
      <path d="M284 741v-73l29-29v-47"/>
      <path d="M268 741v-80l29-29v-31l-13-13v-35l-16-16v-68l-35-35v-10"/>
      <path d="M252 741v-88l17-17v-75l-20-20v-29M296 785h20l8.0156 8.0156v15.9917M292 793v-4 80l8 8h8"/>
      <path d="M340 969h-8l-4 4h-52l-16-16V789"/>
      <path d="M312 953h-32l-4-4V789M296 777h32l32-32v-72l17-17"/>
      <path d="M296 769h28l28-28v-76l10-10"/>
      <path d="M296 761h24l24-24v-81"/>
      <path d="M296 753h20l20-20v-57l-4-4v-4"/>
      <path d="M296 745h16l16-16v-49l-4-4M348 1124v-67l-96-96V789"/>
      <path d="M368 957h-36l-8 8h-44l-12-12V789"/>
      <path d="M288.0311 937v-7.9689L284 925V789"/>
    </g>
    <g>
      <path d="M32 673h68l9-9v-4M32 657h12l25-26 7-7h16l4-4h92.0054l20.0222-20.0221"/>
      <path d="M28 653v-15l6-6h22l12.51-12.51L72 616h16l4-4h92l16-16v-8l8.0623-8.0623v-31.9554"/>
      <path d="M32 665h15l22-22 11-11h20M20 653v-4l-4-4v-4M4 721v-8l8-8v-4M19.6667 721v-20M37 722l-9-9v-12M233 776v-35l7-7v-81l20-20v-68l-17-17h-15"/>
      <path d="M193 821v-21l31-31v-32l8-8v-53l-4-4v-8M153 648h4l4-4h48l19.0263-19.0263H240"/>
    </g>
    <g>
      <path d="M0 852h12l11-11h121l44 44v116l36 36h20l32 32v16l-12 12v40l32 32h24M368 1169h91l4-4h69l4-4h8l44 44h36M368 1153h56l16-16h4l4-4"/>
      <path d="M0 804h4l13 13h139l56 56v108l80 80v32l-12 12v24l24 24h16"/>
      <path d="M0 836h17l3-3h48l79.9896-.0104L196 881v116l16 16h20l52 52v24l-12 12.2857v32.2857L299.4286 1161H320"/>
      <path d="M292 1117v12l16 16h12"/>
      <path d="M204 812v9l16 16v140l80 80v36l4 4v32l8 8h8M368 1129h16l4-4h16M416 1397h-20l-24-24v-164l-8-8v-28"/>
      <path d="M312 1081v44l4 4h4"/>
      <path d="M332 1125v-60l-96-96V829l-8-8v-9"/>
      <path d="M324 1125v-56l-96-96V833l-12-12v-21M368 1161h60l16.0312-16.0312H539M368 1145h52l32-32"/>
      <path d="M368 1137h47l29-29v-3l9-9M328 1289l-.0156-47.9844L315.9688 1229v-15.9688L332 1197v-24M307 1206l17-17v-16"/>
      <path d="M327 1217v-3l13-13v-28M340 1233v-20l8-8v-32M340 1125v-64l-96-96V825l-4-4v-20M356 1125v-88l16-16v-9M416 1405h-25l-27-27v-164l-8-8v-33"/>
      <path d="M364 1125v-84l20-20v-20"/>
    </g>
  </g>
  <g transform="translate(1908)" class="path path-05" stroke="url(#a)" stroke-width="3" fill-rule="evenodd" stroke-linejoin="round" fill="none" stroke-dasharray="8,960,24,960,16,400" stroke-dashoffset="6400">
    <path d="M272 196h16l12 12v16l24 24h92l5-5h7"/>
    <path d="M272 188h20l16 16v16l20 20h84.006l7.997-7.997H480l13.0015-13.0015L494 218v-47M272 180h12M272 172h12M380.0558 370.9965h-9.0523L368 367.9931h-43.993L296.0138 340v-72.9861L260 231v-15M0 167.9667h20.9667L36 183h100l29 29h59"/>
    <path d="M272 212h8l4 4v16l28 28v36l56 56h28l4-4h8"/>
    <path d="M272 204h12l8 8v15l28 28v37.0135l51.9932 51.9933h20.0314l9.0448-9.0448H420M248 360v-4l17-17v-19l-17-17v-36l-20-20v-31M280 352v-76l-36-36v-24M223 196h-51l-28-28V0M236 168v-20l36-36V0"/>
    <path d="M224 204h-55l-33-33V0M228 167v-23l36-36V0M264.004 360v-8.996l7.996-7.996V280l-36-36v-28"/>
    <path d="M295.9966 360v-7.9966L288 344.0068V271l-36-36v-19"/>
    <path d="M420.0054 359H328l-24-24v-71l-36-36v-12M224.0102 188.0224h-46.9924L152 163.0047V0M244 168v-16l36-36V0"/>
    <path d="M224 180h-43l-21-21V0M252 168v-12l36-36V0"/>
    <path d="M224 172h-39l-17-17V0M260 168v-8l36-36V0"/>
    <path d="M268 168v-4l36-36V0"/>
    <g>
      <path d="M376 856v-36l8-8v-80l9-9M384 856v-32l8-8v-72l29-29h43l24-24h4"/>
      <path d="M392 856v-28l8-8v-71l25-25h43l20-20h3"/>
      <path d="M400 856v-24l8-8v-72l21.0238-21.0238H473l14.9881-14.9881h4.012"/>
      <path d="M408 856v-20l8-8v-72l17-17h43.0116l14.9942-14.9942H492M320 828v28l20 20h16M320 876h8l8 8h20M326 921l13-13h17M360 856v-85M303 952h9l8 8h16l24-24v-24"/>
      <path d="M302.9878 975H344l32-32v-31M368 856v-40l4-4v-11"/>
      <path d="M291 963h20l4 4h25l28-28v-27M327 999.0032h5.0032L340 991.0064h12.0064L392 951.0128V912M412 876h32l16 16h32M320 891.6667h36M412 892h24l16 16h40M336 828v20l12 12h8M412 860h40.0125l15.9938 15.9938H492"/>
      <path d="M328 828v24l16 16h12M412 868h36l16 16h28M412 884h28l16 16h36M412 908h16l16 16h48M320 908h8l8-8h20"/>
      <path d="M412 900h20l16 16h44M315 986.9881h8.988L327.9763 983H349l35-35v-36M399.6667 980.0294V912M411.9961 992v-11.996L408 976.0077V912"/>
    </g>
  </g>
  <g transform="translate(48 56)" stroke="#DDE0E2" stroke-width="2" fill="none" fill-rule="evenodd" stroke-linecap="round" stroke-linejoin="round">
    <rect x="132" width="48" height="48" rx="4"/>
    <circle cx="172" cy="200" r="4"/>
    <circle cx="200" cy="212" r="4"/>
    <circle cx="228" cy="228" r="4"/>
    <circle cx="256" cy="216" r="4"/>
    <circle cx="208" cy="72" r="4"/>
    <circle cx="20" cy="359" r="4"/>
    <circle cx="4" cy="359" r="4"/>
    <rect x="204" y="384" width="48" height="48" rx="4"/>
    <circle cx="268" cy="256" r="4"/>
    <circle cx="256" cy="267" r="4"/>
    <circle cx="512" cy="464" r="4"/>
    <circle cx="427" cy="404" r="4"/>
    <circle cx="88" cy="67" r="4"/>
    <circle cx="100" cy="55" r="4"/>
    <circle cx="112" cy="67" r="4"/>
    <circle cx="124" cy="55" r="4"/>
    <circle cx="335" cy="388" r="4"/>
    <circle cx="339" cy="368" r="4"/>
    <circle cx="340" cy="352" r="4"/>
    <circle cx="292" cy="384" r="4"/>
    <circle cx="188" cy="468" r="4"/>
    <circle cx="196" cy="336" r="4"/>
    <circle cx="176" cy="372" r="4"/>
    <circle cx="224" cy="496" r="4"/>
    <circle cx="211" cy="480" r="4"/>
    <circle cx="53" cy="563" r="4"/>
    <circle cx="120" cy="583" r="4"/>
    <circle cx="69" cy="563" r="4"/>
    <circle cx="107" cy="563" r="4"/>
    <circle cx="88" cy="563" r="4"/>
    <rect x="1804" y="384" width="48" height="48" rx="4"/>
    <circle cx="1868" cy="256" r="4"/>
    <circle cx="1856" cy="267" r="4"/>
    <circle cx="2112" cy="464" r="4"/>
    <circle cx="2027" cy="404" r="4"/>
    <circle cx="1688" cy="67" r="4"/>
    <circle cx="1700" cy="55" r="4"/>
    <circle cx="1712" cy="67" r="4"/>
    <circle cx="1724" cy="55" r="4"/>
    <circle cx="1935" cy="388" r="4"/>
    <circle cx="1939" cy="368" r="4"/>
    <circle cx="1940" cy="352" r="4"/>
    <circle cx="1892" cy="384" r="4"/>
    <circle cx="1788" cy="468" r="4"/>
    <circle cx="1796" cy="336" r="4"/>
    <circle cx="1776" cy="372" r="4"/>
    <circle cx="1824" cy="496" r="4"/>
    <circle cx="1811" cy="480" r="4"/>
    <circle cx="1480" cy="63" r="4"/>
    <circle cx="1480" cy="95" r="4"/>
    <circle cx="1480" cy="111" r="4"/>
    <circle cx="4" cy="729" r="4"/>
    <circle cx="17" cy="716" r="4"/>
    <circle cx="56" cy="716" r="4"/>
    <circle cx="84" cy="716" r="4"/>
    <circle cx="28" cy="729" r="4"/>
    <circle cx="31" cy="848" r="4"/>
    <rect x="300" y="648" width="56" height="56" rx="4"/>
    <circle cx="508" cy="512" r="4"/>
    <circle cx="340" cy="508" r="4"/>
    <circle cx="168" cy="508" r="4"/>
    <circle cx="188" cy="508" r="4"/>
    <circle cx="184" cy="528" r="4"/>
    <circle cx="308" cy="504" r="4"/>
    <circle cx="292" cy="504" r="4"/>
    <circle cx="267" cy="504" r="4"/>
    <circle cx="280" cy="517" r="4"/>
    <circle cx="304" cy="915" r="4"/>
    <circle cx="293" cy="895" r="4"/>
    <circle cx="245" cy="900" r="4"/>
    <circle cx="221" cy="900" r="4"/>
    <circle cx="233" cy="912" r="4"/>
    <circle cx="209" cy="912" r="4"/>
    <circle cx="375" cy="696" r="4"/>
    <circle cx="375" cy="680" r="4"/>
    <circle cx="375" cy="664" r="4"/>
    <circle cx="185" cy="635" r="4"/>
    <circle cx="168" cy="684" r="4"/>
    <rect x="132" y="800" width="48" height="48" rx="4"/>
    <circle cx="117" cy="479" r="4"/>
    <circle cx="133" cy="567" r="4"/>
    <circle cx="209" cy="676" r="4"/>
    <circle cx="197" cy="647" r="4"/>
    <circle cx="228" cy="1028" r="4"/>
    <circle cx="208" cy="872" r="4"/>
    <circle cx="264" cy="711" r="4"/>
    <circle cx="249" cy="711" r="4"/>
    <circle cx="228" cy="711" r="4"/>
    <circle cx="216" cy="723" r="4"/>
    <circle cx="205" cy="731" r="4"/>
    <circle cx="256" cy="1016" r="4"/>
    <circle cx="200" cy="1012" r="4"/>
    <circle cx="172" cy="1000" r="4"/>
    <circle cx="1785" cy="635" r="4"/>
    <circle cx="1768" cy="684" r="4"/>
    <rect x="1732" y="800" width="48" height="48" rx="4"/>
    <circle cx="1717" cy="479" r="4"/>
    <circle cx="1733" cy="567" r="4"/>
    <circle cx="1809" cy="676" r="4"/>
    <circle cx="1797" cy="647" r="4"/>
    <circle cx="1828" cy="1028" r="4"/>
    <circle cx="1808" cy="872" r="4"/>
    <circle cx="1864" cy="711" r="4"/>
    <circle cx="1849" cy="711" r="4"/>
    <circle cx="1828" cy="711" r="4"/>
    <circle cx="1816" cy="723" r="4"/>
    <circle cx="1805" cy="731" r="4"/>
    <circle cx="1856" cy="1016" r="4"/>
    <circle cx="1800" cy="1012" r="4"/>
    <circle cx="1772" cy="1000" r="4"/>
    <rect x="484" y="112" width="48" height="48" rx="4"/>
    <circle cx="508" cy="308" r="4"/>
    <circle cx="524" cy="308" r="4"/>
    <circle cx="540" cy="300" r="4"/>
    <circle cx="556" cy="308" r="4"/>
    <circle cx="684" cy="279" r="4"/>
    <circle cx="684" cy="303" r="4"/>
    <circle cx="672" cy="292" r="4"/>
    <circle cx="754" cy="111" r="4"/>
    <circle cx="256" cy="112" r="4"/>
    <rect x="2084" y="112" width="48" height="48" rx="4"/>
    <circle cx="2108" cy="308" r="4"/>
    <circle cx="2124" cy="308" r="4"/>
    <circle cx="2140" cy="300" r="4"/>
    <circle cx="2156" cy="308" r="4"/>
    <circle cx="2284" cy="279" r="4"/>
    <circle cx="2284" cy="303" r="4"/>
    <circle cx="2272" cy="292" r="4"/>
    <circle cx="2354" cy="111" r="4"/>
    <circle cx="1856" cy="112" r="4"/>
    <rect x="932" width="48" height="48" rx="4"/>
    <circle cx="972" cy="200" r="4"/>
    <circle cx="1000" cy="212" r="4"/>
    <circle cx="1028" cy="228" r="4"/>
    <circle cx="1056" cy="216" r="4"/>
    <circle cx="1008" cy="72" r="4"/>
    <rect x="992" y="132" width="40" height="40" rx="4"/>
    <circle cx="1268" cy="296" r="4"/>
    <circle cx="1471" cy="328" r="4"/>
    <circle cx="1444" cy="340" r="4"/>
    <circle cx="1504" cy="352" r="4"/>
    <circle cx="1012" cy="184" r="4"/>
    <circle cx="980" cy="168" r="4"/>
    <circle cx="980" cy="152" r="4"/>
    <circle cx="1072" cy="124" r="4"/>
    <circle cx="1044" cy="184" r="4"/>
    <circle cx="992" cy="104" r="4"/>
    <rect x="616" y="800" width="56" height="56" rx="4"/>
    <circle cx="755" cy="648" r="4"/>
    <circle cx="804" cy="729" r="4"/>
    <circle cx="817" cy="716" r="4"/>
    <circle cx="856" cy="716" r="4"/>
    <circle cx="884" cy="716" r="4"/>
    <circle cx="828" cy="729" r="4"/>
    <circle cx="771" cy="635" r="4"/>
    <circle cx="888" cy="904" r="4"/>
    <circle cx="831" cy="848" r="4"/>
    <circle cx="583" cy="868" r="4"/>
    <circle cx="656" cy="663" r="4"/>
    <circle cx="880" cy="615" r="4"/>
    <circle cx="869" cy="628" r="4"/>
    <circle cx="632" cy="741" r="4"/>
    <circle cx="620" cy="711" r="4"/>
    <circle cx="576" cy="820" r="4"/>
    <circle cx="576" cy="836" r="4"/>
    <circle cx="576" cy="852" r="4"/>
    <circle cx="559" cy="896" r="4"/>
    <circle cx="559" cy="919" r="4"/>
    <circle cx="571" cy="931" r="4"/>
    <circle cx="583" cy="943" r="4"/>
    <circle cx="672" cy="940" r="4"/>
    <circle cx="660" cy="928" r="4"/>
    <circle cx="547" cy="907" r="4"/>
    <rect x="1340" y="400" width="48" height="48" rx="4"/>
    <circle cx="1292" cy="440" r="4"/>
    <circle cx="1280" cy="452" r="4"/>
    <circle cx="1227" cy="360" r="4"/>
    <circle cx="1227" cy="383" r="4"/>
    <circle cx="1209" cy="371" r="4"/>
    <circle cx="1398" cy="371" r="4"/>
    <circle cx="1528" cy="408" r="4"/>
    <circle cx="1528" cy="424" r="4"/>
    <circle cx="1516" cy="436" r="4"/>
    <circle cx="1487" cy="436" r="4"/>
    <circle cx="1444" cy="452" r="4"/>
    <circle cx="1384" cy="519" r="4"/>
    <circle cx="1396" cy="508" r="4"/>
    <circle cx="1368" cy="519" r="4"/>
    <circle cx="1352" cy="519" r="4"/>
    <circle cx="1504" cy="447" r="4"/>
    <rect x="1340" y="1200" width="48" height="48" rx="4"/>
    <circle cx="1292" cy="1240" r="4"/>
    <circle cx="1280" cy="1252" r="4"/>
    <circle cx="1227" cy="1160" r="4"/>
    <circle cx="1227" cy="1183" r="4"/>
    <circle cx="1209" cy="1171" r="4"/>
    <circle cx="1398" cy="1171" r="4"/>
    <circle cx="1528" cy="1208" r="4"/>
    <circle cx="1528" cy="1224" r="4"/>
    <circle cx="1516" cy="1236" r="4"/>
    <circle cx="1487" cy="1236" r="4"/>
    <circle cx="1444" cy="1252" r="4"/>
    <circle cx="1384" cy="1319" r="4"/>
    <circle cx="1396" cy="1308" r="4"/>
    <circle cx="1368" cy="1319" r="4"/>
    <circle cx="1352" cy="1319" r="4"/>
    <circle cx="1504" cy="1247" r="4"/>
    <circle cx="1205" cy="662" r="4"/>
    <rect x="1124" y="820" width="48" height="48" rx="4"/>
    <circle cx="1173" cy="790" r="4"/>
    <circle cx="1175" cy="712" r="4"/>
    <circle cx="1132" cy="805" r="4"/>
    <circle cx="1148" cy="790" r="4"/>
    <circle cx="1120" cy="915" r="4"/>
    <circle cx="1169" cy="915" r="4"/>
    <circle cx="1133" cy="915" r="4"/>
    <circle cx="1185" cy="915" r="4"/>
    <path d="M1551.9219 500h20.075c2.2109 0 4.0031 1.7998 4.0031 4.005v47.99c0 2.212-1.787 4.005-4.0061 4.005H1522.9976c-2.2078 0-3.9976-1.7998-3.9976-4.005v-47.99c0-2.212 1.7886-4.005 3.9932-4.005h28.8403"/>
    <circle cx="1464" cy="211" r="4"/>
    <circle cx="1493" cy="220" r="4"/>
    <circle cx="1505" cy="231" r="4"/>
    <circle cx="1532" cy="263" r="4"/>
    <circle cx="1564" cy="172" r="4"/>
    <circle cx="1657" cy="411" r="4"/>
    <circle cx="1616" cy="572" r="4"/>
    <circle cx="1628" cy="476" r="4"/>
    <circle cx="1617" cy="487" r="4"/>
    <circle cx="1600" cy="572" r="4"/>
    <circle cx="1604" cy="476" r="4"/>
    <circle cx="1593" cy="487" r="4"/>
    <path d="M751.9219 1300h20.075c2.2109 0 4.0031 1.7998 4.0031 4.005v47.99c0 2.212-1.787 4.005-4.0061 4.005H722.9976c-2.2078 0-3.9976-1.7998-3.9976-4.005v-47.99c0-2.212 1.7886-4.005 3.9932-4.005h28.8403"/>
    <circle cx="664" cy="1011" r="4"/>
    <circle cx="693" cy="1020" r="4"/>
    <circle cx="705" cy="1031" r="4"/>
    <circle cx="732" cy="1063" r="4"/>
    <circle cx="764" cy="972" r="4"/>
    <circle cx="857" cy="1211" r="4"/>
    <circle cx="816" cy="1372" r="4"/>
    <circle cx="828" cy="1276" r="4"/>
    <circle cx="817" cy="1287" r="4"/>
    <circle cx="800" cy="1372" r="4"/>
    <circle cx="804" cy="1276" r="4"/>
    <circle cx="793" cy="1287" r="4"/>
    <path d="M1492 744.0303v-28.0384c0-2.2047 1.7843-3.9919 3.99-3.9919h16.02c2.2036 0 3.99 1.79 3.99 3.9905v28.0285"/>
    <circle cx="1500" cy="696" r="4"/>
    <circle cx="1593" cy="715" r="4"/>
    <circle cx="1588" cy="691" r="4"/>
    <circle cx="1633" cy="707" r="4"/>
    <circle cx="1728" cy="684" r="4"/>
    <circle cx="1712" cy="719" r="4"/>
    <circle cx="1708" cy="607" r="4"/>
    <circle cx="1692" cy="603" r="4"/>
    <circle cx="1695" cy="656" r="4"/>
    <circle cx="1524" cy="784" r="4"/>
    <circle cx="1504" cy="784" r="4"/>
    <circle cx="1488" cy="784" r="4"/>
    <circle cx="1717" cy="839" r="4"/>
    <circle cx="1677" cy="884" r="4"/>
    <path d="M1516 744.1563v11.8457c0 2.208-1.7843 3.998-3.99 3.998h-16.02c-2.2036 0-3.99-1.7896-3.99-4.0046V744.13"/>
    <rect x="992" y="932" width="40" height="40" rx="4"/>
    <circle cx="980" cy="968" r="4"/>
    <circle cx="1471" cy="1128" r="4"/>
    <circle cx="1444" cy="1140" r="4"/>
    <circle cx="1504" cy="1152" r="4"/>
    <circle cx="980" cy="952" r="4"/>
    <circle cx="1072" cy="924" r="4"/>
    <circle cx="1012" cy="984" r="4"/>
    <circle cx="1044" cy="984" r="4"/>
    <circle cx="992" cy="904" r="4"/>
    <rect x="2216" y="800" width="56" height="56" rx="4"/>
    <circle cx="2220" cy="711" r="4"/>
    <circle cx="2256" cy="663" r="4"/>
    <circle cx="2176" cy="820" r="4"/>
    <circle cx="2176" cy="836" r="4"/>
    <circle cx="2176" cy="852" r="4"/>
    <circle cx="2183" cy="868" r="4"/>
    <circle cx="2159" cy="896" r="4"/>
    <circle cx="2159" cy="919" r="4"/>
    <circle cx="2171" cy="931" r="4"/>
    <circle cx="2183" cy="943" r="4"/>
    <circle cx="2272" cy="940" r="4"/>
    <circle cx="2260" cy="928" r="4"/>
    <circle cx="2147" cy="907" r="4"/>
    <circle cx="2232" cy="741" r="4"/>
    <rect x="1804" y="1184" width="48" height="48" rx="4"/>
    <circle cx="1480" cy="863" r="4"/>
    <circle cx="1480" cy="895" r="4"/>
    <circle cx="1480" cy="911" r="4"/>
    <circle cx="2112" cy="1264" r="4"/>
    <circle cx="2027" cy="1204" r="4"/>
    <circle cx="1688" cy="867" r="4"/>
    <circle cx="1700" cy="855" r="4"/>
    <circle cx="1712" cy="867" r="4"/>
    <circle cx="1724" cy="855" r="4"/>
    <circle cx="1935" cy="1188" r="4"/>
    <circle cx="1939" cy="1168" r="4"/>
    <circle cx="1940" cy="1152" r="4"/>
    <circle cx="1892" cy="1184" r="4"/>
    <circle cx="1788" cy="1268" r="4"/>
    <circle cx="1796" cy="1136" r="4"/>
    <circle cx="1776" cy="1172" r="4"/>
    <circle cx="1824" cy="1296" r="4"/>
    <circle cx="1811" cy="1280" r="4"/>
  </g>
  <g stroke="#DDE0E2" stroke-width="2" fill="none" fill-rule="evenodd" stroke-linecap="round" stroke-linejoin="round">
    <path d="M228 92h32l32-32V0"/>
    <path d="M228 84h28l28-28V0"/>
    <path d="M228 76h24l24-24V0"/>
    <path d="M228 68h20l20-20V0"/>
    <path d="M228 60h16l16-16V0M192 56V0M184 56V0M200 56V0M208 56V0M216 56V0M224 56V0M176 92h4M228 100h20l8.0156 8.0156v15.9917M176 100h4M176 84h4M176 76h4M176 68h4M176 60h4M272 284h-8l-4 4h-52l-16-16V104"/>
    <path d="M280 439v-67l-96-96V104"/>
    <path d="M300 272h-36l-8 8h-44l-12-12V104"/>
    <path d="M244 268h-32l-4-4V104"/>
    <path d="M220.0311 252v-7.9689L216 240V104M224 108v-4 80l8 8h8"/>
    <g>
      <path d="M0 239h24l32 32v124l12 12v4"/>
      <path d="M0 247h20l29 29v124l3 3v8"/>
      <path d="M0 271h7l16 16v121l-11.0454 11.0454L12 487v9l-13 13"/>
      <path d="M-1 521l21-21v-76l12-12V284l-21-21H0"/>
      <path d="M-1 556v-24l29-29v-75l12-12V279l-24-24H0"/>
    </g>
    <g>
      <path d="M300 476h60l16.0312-16.0312H471M0 156h76l44 44v116l36 36h20l32 32v16l-12 12v40l32 32h24M300 484h91l4-4h69l4-4h8l44 44h36"/>
      <path d="M300 468h56l16-16h4l4-4M0 132h88l56 56v108l80 80v32l-12 12v24l24 24h16"/>
      <path d="M300 460h52l32-32M224 432v12l16 16h12"/>
      <path d="M300 452h47l29-29v-3l9-9M136 127v9l16 16v140l80 80v36l4 4v32l8 8h8"/>
      <path d="M300 444h16l4-4h16M348 712h-20l-24-24V524l-8-8v-28M244 396v44l4 4h4"/>
      <path d="M264 440v-60l-96-96V144l-8-8v-9M260 604l-.0156-47.9844L247.9688 544v-15.9688L264 512v-24"/>
      <path d="M256 440v-56l-96-96V148l-12-12v-21M239 521l17-17v-16"/>
      <path d="M272 440v-64l-96-96V140l-4-4v-20M259 532v-3l13-13v-28M272 548v-20l8-8v-32M288 440v-88l16-16v-9M348 720h-25l-27-27V529l-8-8v-33"/>
      <path d="M296 440v-84l20-20v-20M0 148l79.9896-.0104L128 196v116l16 16h20l52 52v24l-12 12.2857v32.2857L231.4286 476H252"/>
    </g>
    <g>
      <path d="M0 643h88l13-13v-7"/>
      <path d="M0 651h93l24.0208-24.0208v-3.9793"/>
      <path d="M0 659h96l37-37"/>
      <path d="M0 675h4l8-8.0623L100 667l35-35h8l9-9"/>
      <path d="M0 683h9l8-8h87l36-36h24"/>
    </g>
    <g>
      <path d="M1900 476h60l16.0312-16.0312H2071M1532 167h12l11-11h121l44 44v116l36 36h20l32 32v16l-12 12v40l32 32h24M1900 484h91l4-4h69l4-4h8l44 44h36"/>
      <path d="M1900 468h56l16-16h4l4-4M1532 119h4l13 13h139l56 56v108l80 80v32l-12 12v24l24 24h16"/>
      <path d="M1900 460h52l32-32M1824 432v12l16 16h12"/>
      <path d="M1900 452h47l29-29v-3l9-9M1736 127v9l16 16v140l80 80v36l4 4v32l8 8h8"/>
      <path d="M1900 444h16l4-4h16M1948 712h-20l-24-24V524l-8-8v-28M1844 396v44l4 4h4"/>
      <path d="M1864 440v-60l-96-96V144l-8-8v-9M1860 604l-.0156-47.9844L1847.9688 544v-15.9688L1864 512v-24"/>
      <path d="M1856 440v-56l-96-96V148l-12-12v-21M1839 521l17-17v-16"/>
      <path d="M1872 440v-64l-96-96V140l-4-4v-20M1859 532v-3l13-13v-28M1872 548v-20l8-8v-32M1888 440v-88l16-16v-9M1948 720h-25l-27-27V529l-8-8v-33"/>
      <path d="M1896 440v-84l20-20v-20M1532 151h17l3-3h48l79.9896-.0104L1728 196v116l16 16h20l52 52v24l-12 12.2857v32.2857L1831.4286 476H1852"/>
    </g>
    <g>
      <path d="M0 908h60l40-40v-77l19.0263-19.0263h9.0322"/>
      <path d="M0 900h56l36-36v-80l8.5131-8.5131"/>
      <path d="M0 892h53l32-32v-47l-9-9v-14"/>
      <path d="M0 884h47l28-28v-42l-10-10v-28"/>
      <path d="M0 876h44l24-24v-32l-16-16v-14M0 916h67l9-9"/>
    </g>
    <g>
      <path d="M404 720h15M239 567l5 5v20l-12 12v32l48 48v16l36 36h32M404 736h15"/>
      <path d="M266.9762 655v3.9762L288 680v16l32 32h28"/>
      <path d="M216 567.9934V644l48 48v16l44 44h40M404 752h15"/>
      <path d="M229 587l-5 5v48l48 48v16l40 40h36M355 704v-16l-32-32v-32l-8-8v-52M257 964v-18l11-11v-39l88-88v-48"/>
      <path d="M269 952v-5l8-8v-40l87-87v-52"/>
      <path d="M281 964v-17l4-4v-40l87-88v-55"/>
      <path d="M293 952v-45l87-87v-60"/>
      <path d="M341 947v-4l4-4v-72l43-43v-64"/>
      <path d="M352 967v-95l44-44v-68M404 712h5M404 728h5M404 744h5M371 704v-24l-31-31v-84"/>
      <path d="M363 704v-21l-31-31v-44l-4-4v-27.0185"/>
      <path d="M379 704v-29l-31-31v-40l8-8v-32"/>
      <path d="M387 704v-32l-31-31v-33.0151l7.9924-7.9925V568l20.029-20.029H416l27.9855-27.9855H460l56.0072 56.0073H532l8.0591-8.0592h11.941"/>
      <path d="M395 704v-36l-31-31v-26l8-8v-23l13-13"/>
    </g>
    <g>
      <path d="M208 856v-77l29-29v-38l-4-4v-13"/>
      <path d="M192 856v-85l24-24v-3M224 856v-69l29.0172-29.0172V747l4.1127-4.1127V736"/>
      <path d="M216 856v-73l29-29v-47"/>
      <path d="M200 856v-80l29-29v-31l-13-13v-35l-16-16v-68l-35-35v-10"/>
      <path d="M184 856v-88l17-17v-75l-20-20v-29M228 900h20l8.0156 8.0156v15.9917M224 908v-4 80l8 8h8"/>
      <path d="M272 1084h-8l-4 4h-52l-16-16V904"/>
      <path d="M244 1068h-32l-4-4V904M228 892h32l32-32v-72l17-17"/>
      <path d="M228 884h28l28-28v-76l10-10"/>
      <path d="M228 876h24l24-24v-81"/>
      <path d="M228 868h20l20-20v-57l-4-4v-4"/>
      <path d="M228 860h16l16-16v-49l-4-4M280 1239v-67l-96-96V904"/>
      <path d="M300 1072h-36l-8 8h-44l-12-12V904"/>
      <path d="M220.0311 1052v-7.9689L216 1040V904"/>
    </g>
    <g>
      <path d="M1808 856v-77l29-29v-38l-4-4v-13"/>
      <path d="M1792 856v-85l24-24v-3M1824 856v-69l29.0172-29.0172V747l4.1127-4.1127V736"/>
      <path d="M1816 856v-73l29-29v-47"/>
      <path d="M1800 856v-80l29-29v-31l-13-13v-35l-16-16v-68l-35-35v-10"/>
      <path d="M1784 856v-88l17-17v-75l-20-20v-29M1828 900h20l8.0156 8.0156v15.9917M1824 908v-4 80l8 8h8"/>
      <path d="M1872 1084h-8l-4 4h-52l-16-16V904"/>
      <path d="M1844 1068h-32l-4-4V904M1828 892h32l32-32v-72l17-17"/>
      <path d="M1828 884h28l28-28v-76l10-10"/>
      <path d="M1828 876h24l24-24v-81"/>
      <path d="M1828 868h20l20-20v-57l-4-4v-4"/>
      <path d="M1828 860h16l16-16v-49l-4-4M1880 1239v-67l-96-96V904"/>
      <path d="M1900 1072h-36l-8 8h-44l-12-12V904"/>
      <path d="M1820.0311 1052v-7.9689L1816 1040V904"/>
    </g>
    <g>
      <path d="M580 196h16l12 12v16l24 24h92l5-5h7"/>
      <path d="M580 188h20l16 16v16l20 20h84.006l7.997-7.997H788l13.0015-13.0015L802 218v-47M580 180h12M580 172h12M688.0558 370.9965h-9.0523L676 367.9931h-43.993L604.0138 340v-72.9861L568 231v-15M308 167.9667h20.9667L344 183h100l29 29h59"/>
      <path d="M580 212h8l4 4v16l28 28v36l56 56h28l4-4h8"/>
      <path d="M580 204h12l8 8v15l28 28v37.0135l51.9932 51.9933h20.0314l9.0448-9.0448H728M556 360v-4l17-17v-19l-17-17v-36l-20-20v-31M588 352v-76l-36-36v-24M531 196h-51l-28-28V0M544 168v-20l36-36V0"/>
      <path d="M532 204h-55l-33-33V0M536 167v-23l36-36V0M572.004 360v-8.996l7.996-7.996V280l-36-36v-28"/>
      <path d="M603.9966 360v-7.9966L596 344.0068V271l-36-36v-19"/>
      <path d="M728.0054 359H636l-24-24v-71l-36-36v-12M532.0102 188.0224h-46.9924L460 163.0047V0M552 168v-16l36-36V0"/>
      <path d="M532 180h-43l-21-21V0M560 168v-12l36-36V0"/>
      <path d="M532 172h-39l-17-17V0M568 168v-8l36-36V0"/>
      <path d="M576 168v-4l36-36V0"/>
    </g>
    <g>
      <path d="M2180 196h16l12 12v16l24 24h92l5-5h7"/>
      <path d="M2180 188h20l16 16v16l20 20h84.006l7.997-7.997H2388l13.0015-13.0015L2402 218v-47M2180 180h12M2180 172h12M2288.0558 370.9965h-9.0523L2276 367.9931h-43.993L2204.0138 340v-72.9861L2168 231v-15M1908 167.9667h20.9667L1944 183h100l29 29h59"/>
      <path d="M2180 212h8l4 4v16l28 28v36l56 56h28l4-4h8"/>
      <path d="M2180 204h12l8 8v15l28 28v37.0135l51.9932 51.9933h20.0314l9.0448-9.0448H2328M2156 360v-4l17-17v-19l-17-17v-36l-20-20v-31M2188 352v-76l-36-36v-24M2131 196h-51l-28-28V0M2144 168v-20l36-36V0"/>
      <path d="M2132 204h-55l-33-33V0M2136 167v-23l36-36V0M2172.004 360v-8.996l7.996-7.996V280l-36-36v-28"/>
      <path d="M2203.9966 360v-7.9966L2196 344.0068V271l-36-36v-19"/>
      <path d="M2328.0054 359H2236l-24-24v-71l-36-36v-12M2132.0102 188.0224h-46.9924L2060 163.0047V0M2152 168v-16l36-36V0"/>
      <path d="M2132 180h-43l-21-21V0M2160 168v-12l36-36V0"/>
      <path d="M2132 172h-39l-17-17V0M2168 168v-8l36-36V0"/>
      <path d="M2176 168v-4l36-36V0"/>
    </g>
    <g>
      <path d="M1028 92h32l32-32V0"/>
      <path d="M1028 84h28l28-28V0"/>
      <path d="M1028 76h24l24-24V0"/>
      <path d="M1028 68h20l20-20V0"/>
      <path d="M1028 60h16l16-16V0M992 56V0M984 56V0M1000 56V0M1008 56V0M1016 56V0M1024 56V0M976 92h4M1028 100h20l8.0156 8.0156v15.9917M976 100h4M976 84h4M976 76h4M976 68h4M976 60h4M1072 284h-8l-4 4h-52l-16-16V104"/>
      <path d="M1080 439v-67l-96-96V104"/>
      <path d="M1100 272h-36l-8 8h-44l-12-12V104"/>
      <path d="M1044 268h-32l-4-4V104"/>
      <path d="M1020.0311 252v-7.9689L1016 240V104M1024 108v-4 80l8 8h8"/>
    </g>
    <g>
      <path d="M1080 216h147l33 33v91l72 72h72l20-20h40l32 32h52l4-4v-8"/>
      <path d="M1080 208h151l36 36v91.0055l48.9973 48.9972H1468l12.0401 12.0402h7.0254"/>
      <path d="M1080 200h155l41 41v91l44 44h151l8 8h35"/>
      <path d="M1080 192h159l45 45v91s15 16 16 16h8l5 5M1032 224h8M1036 216h4M1032 208h8M1036 200h4M1060 236v-8M1076 188v-4l4-4h36M1088 240h-4l-8-8v-4M1052 188v-4M1060 188v-4M1044 188v-4l-4-4v-16M1068 188v-4"/>
    </g>
    <g>
      <path d="M628 828v28l20 20h16M720 876h32l16 16h85l32-32v-47l-9-9v-14M644 828v20l12 12h8"/>
      <path d="M720 860h40.0125l15.9938 15.9938H800L842 876h2l24-24v-32l-16-16v-14"/>
      <path d="M720 892h24l16 16h100l40-40v-77l19.0263-19.0263h9.0322"/>
      <path d="M720 884h28l16 16h92l36-36v-80l8.5131-8.5131"/>
      <path d="M720 868h36l16 16h75l28-28v-42l-10-10v-28M708 856v-24l8-8v-72l21.0238-21.0238H781l14.9881-14.9881h4.012L812 716l4-4h92l9-9v-15"/>
      <path d="M716 856v-20l8-8v-72l17-17h43.0116l14.9942-14.9942H800L816 724l4-4h93l12-12v-9l3-3v-21"/>
      <path d="M692 856v-32l8-8v-72l29-29h43l24-24h19M720 900h20l16 16h111l9-9"/>
      <path d="M720 908h16l16 16h140l28 28h8l5 5M636 828v24l16 16h12M634 921l13-13h17M668 856v-85M623 986.9881h8.988L635.9763 983H657l35-35v-36M684 856v-36l8-8v-80l9-9M700 856v-28l8-8v-71l25-25h43l20-20h3M628 891.6667h36M628 876h8l8 8h20M628 908h8l8-8h20M611 952h9l8 8h16l24-24v-24M719.9961 992v-11.996L716 976.0077V912"/>
      <path d="M610.9878 975H652l32-32v-31M676 856v-40l4-4v-11"/>
      <path d="M599 963h20l4 4h25l28-28v-27M635 999.0032h5.0032L648 991.0064h12.0064L700 951.0128V912M707.6667 980.0294V912"/>
    </g>
    <g>
      <path d="M1396 455v-12M1412 455v-12M1404 455v-12M1279 416h9l28 28h40l20 20h12M1436 464h112l16 16h8M1279 439h9l20 20h39l21 21h20M1436 480h104l12.0416 12.0416V499"/>
      <path d="M1261 426.9792h26.9792L1312 451h39l21 21h16M1436 472h108.0046l16.9977 16.9977M1333 508h26l12-12h17M1436 496h12l16 16h8l4-4h12M1345 496h15l8-8h20M1436 488h84l4 4h7M1400.0208 571v-3.9792l8.0208-8.0208v-14.9584L1396 532v-28M1423 563v-28l-11-11v-20M1416 571v-31l-12-12v-24M1420 455v-12l16-16h6M1432 571v-39l-12-12v-16M1428 455v-7l9-9h27l16 16h71l9 9h12M1444 560v-8l-4-4v-21l-12-12v-11"/>
    </g>
    <g>
      <path d="M1396 1255v-12M1412 1255v-12M1404 1255v-12M1279 1216h9l28 28h40l20 20h12M1436 1264h112l16 16h8M1279 1239h9l20 20h39l21 21h20M1436 1280h104l12.0416 12.0416V1299"/>
      <path d="M1261 1226.9792h26.9792L1312 1251h39l21 21h16M1436 1272h108.0046l16.9977 16.9977M1333 1308h26l12-12h17M1436 1296h12l16 16h8l4-4h12M1345 1296h15l8-8h20M1436 1288h84l4 4h7M1400.0208 1371v-3.9792l8.0208-8.0208v-14.9584L1396 1332v-28M1423 1363v-28l-11-11v-20M1416 1371v-31l-12-12v-24M1420 1255v-12l16-16h6M1432 1371v-39l-12-12v-16M1428 1255v-7l9-9h27l16 16h71l9 9h12M1444 1360v-8l-4-4v-21l-12-12v-11"/>
    </g>
    <g>
      <path d="M1221 884h8l7-8v-40l-16-16v-24l17-17v-33l16-16v-8M1180 876v-10M1168 967v-15l12-12v-16M1181 967v-16l7-7v-20M1196 876v-26M1217 967v-8l-21-21v-14"/>
      <path d="M1212 876v-9l9-9v-8M1233 967v-16l-21-20v-7M1204 875v-88l16-16"/>
    </g>
    <g>
      <path d="M1574 556v-34l27.5045-27.5045L1604 492v-71l-3-3-25-25v-61l4-4v-5"/>
      <path d="M1590 556v-26l13.0384-13.0384L1620 500v-76l12-12V284l-21-21h-26l-9 9h-20l-4 4h-7"/>
      <path d="M1582 556v-30l20.025-20.025L1612 496v-9l-.0454-67.9546L1623 408V287l-16-16h-19l-8.0623 8.0623h-11.9379l-7.9688 7.9688h-3.0312"/>
      <path d="M1515.9616 267H1529l3-3h39l9-9h36l24 24v137l-12 12v75l-29 29v24M1624 596h20l20 20v8"/>
      <path d="M1624 604h17l7.071 7.071v12.9292M1624 572h12l16-16v-20"/>
      <path d="M1624 564h8l9-9v-8M1624 588h20l32-32v-20"/>
      <path d="M1624 580h16l25-25v-8M1616 556v-16l24.0208-24.0208H1688l16.9896-16.9896V471"/>
      <path d="M1608 556v-20l28.0179-28.0179h47.9929l8.9857-8.9856v-79.0028l-28.9951-28.995V268l-40.0132-40.0132H1616"/>
    </g>
    <g>
      <path d="M774 1356v-34l27.5045-27.5045L804 1292v-71l-3-3-25-25v-61l4-4v-5"/>
      <path d="M790 1356v-26l13.0384-13.0384L820 1300v-76l12-12v-128l-21-21h-26l-9 9h-20l-4 4h-7"/>
      <path d="M782 1356v-30l20.025-20.025L812 1296v-9l-.0454-67.9546L823 1208v-121l-16-16h-19l-8.0623 8.0623h-11.9379l-7.9688 7.9688h-3.0312"/>
      <path d="M715.9616 1067H729l3-3h39l9-9h36l24 24v137l-12 12v75l-29 29v24M824 1396h20l20 20v8"/>
      <path d="M824 1404h17l7.071 7.071v12.9292M824 1372h12l16-16v-20"/>
      <path d="M824 1364h8l9-9v-8M824 1388h20l32-32v-20"/>
      <path d="M824 1380h16l25-25v-8M816 1356v-16l24.0208-24.0208H888l16.9896-16.9896V1271"/>
      <path d="M808 1356v-20l28.0179-28.0179h47.9929l8.9857-8.9856v-79.0028l-28.9951-28.995V1068l-40.0132-40.0132H816"/>
    </g>
    <g>
      <path d="M1564 788h68l9-9v-4M1564 772h12l25-26 7-7h16l4-4h92.0054l20.0222-20.0221"/>
      <path d="M1560 768v-15l6-6h22l12.51-12.51L1604 731h16l4-4h92l16-16v-8l8.0623-8.0623v-31.9554"/>
      <path d="M1564 780h15l22-22 11-11h20M1552 768v-4l-4-4v-4M1536 836v-8l8-8v-4M1551.6667 836v-20M1569 837l-9-9v-12M1765 891v-35l7-7v-81l20-20v-68l-17-17h-15"/>
      <path d="M1725 936v-21l31-31v-32l8-8v-53l-4-4v-8M1685 763h4l4-4h48l19.0263-19.0263H1772"/>
    </g>
    <g>
      <path d="M1080 1016h147l33 33v91l72 72h72l20-20h40l32 32h52l4-4v-8"/>
      <path d="M1080 1008h151l36 36v91.0055l48.9973 48.9972H1468l12.0401 12.0402h7.0254"/>
      <path d="M1080 1000h155l41 41v91l44 44h151l8 8h35"/>
      <path d="M1080 992h159l45 45v91s15 16 16 16h8l5 5M1032 1024h8M1032 1008h8M1076 988v-4l4-4h36M1052 988v-4M1044 988v-4l-4-4v-16M1060 1036v-8M1024 908v-4 80l8 8h8M1088 1040h-4l-8-8v-4"/>
    </g>
    <g>
      <path d="M2284 856v-36l8-8v-80l9-9M2292 856v-32l8-8v-72l29-29h43l24-24h4"/>
      <path d="M2300 856v-28l8-8v-71l25-25h43l20-20h3"/>
      <path d="M2308 856v-24l8-8v-72l21.0238-21.0238H2381l14.9881-14.9881h4.012"/>
      <path d="M2316 856v-20l8-8v-72l17-17h43.0116l14.9942-14.9942H2400M2228 828v28l20 20h16M2228 876h8l8 8h20M2234 921l13-13h17M2268 856v-85M2211 952h9l8 8h16l24-24v-24"/>
      <path d="M2210.9878 975H2252l32-32v-31M2276 856v-40l4-4v-11"/>
      <path d="M2199 963h20l4 4h25l28-28v-27M2235 999.0032h5.0032l7.9968-7.9968h12.0064L2300 951.0128V912M2320 876h32l16 16h32M2228 891.6667h36M2320 892h24l16 16h40M2244 828v20l12 12h8M2320 860h40.0125l15.9938 15.9938H2400"/>
      <path d="M2236 828v24l16 16h12M2320 868h36l16 16h28M2320 884h28l16 16h36M2320 908h16l16 16h48M2228 908h8l8-8h20"/>
      <path d="M2320 900h20l16 16h44M2223 986.9881h8.988l3.9882-3.9881H2257l35-35v-36M2307.6667 980.0294V912M2319.9961 992v-11.996L2316 976.0077V912"/>
    </g>
    <g>
      <path d="M1532 967h12l11-11h121l44 44v116l36 36h20l32 32v16l-12 12v40l32 32h24M1900 1284h91l4-4h69l4-4h8l44 44h36M1900 1268h56l16-16h4l4-4"/>
      <path d="M1532 919h4l13 13h139l56 56v108l80 80v32l-12 12v24l24 24h16"/>
      <path d="M1532 951h17l3-3h48l79.9896-.0104L1728 996v116l16 16h20l52 52v24l-12 12.2857v32.2857L1831.4286 1276H1852"/>
      <path d="M1824 1232v12l16 16h12"/>
      <path d="M1736 927v9l16 16v140l80 80v36l4 4v32l8 8h8M1900 1244h16l4-4h16M1948 1512h-20l-24-24v-164l-8-8v-28"/>
      <path d="M1844 1196v44l4 4h4"/>
      <path d="M1864 1240v-60l-96-96V944l-8-8v-9"/>
      <path d="M1856 1240v-56l-96-96V948l-12-12v-21M1900 1276h60l16.0312-16.0312H2071M1900 1260h52l32-32"/>
      <path d="M1900 1252h47l29-29v-3l9-9M1860 1404l-.0156-47.9844L1847.9688 1344v-15.9688L1864 1312v-24M1839 1321l17-17v-16"/>
      <path d="M1859 1332v-3l13-13v-28M1872 1348v-20l8-8v-32M1872 1240v-64l-96-96V940l-4-4v-20M1888 1240v-88l16-16v-9M1948 1520h-25l-27-27v-164l-8-8v-33"/>
      <path d="M1896 1240v-84l20-20v-20"/>
    </g>
  </g>
</svg>